<?xml version="1.0" encoding="UTF-8" standalone="no"?>
<svg width="100%" height="100%" viewBox="0 0 90 102" xml:space="preserve"
    xmlns="http://www.w3.org/2000/svg"
    xmlns:xlink="http://www.w3.org/1999/xlink">
    
  <desc>
    Rework of https://openclipart.org/detail/166606/orologio icon to keep time
  
    Jay Nick
    STEAMcoded.org
  </desc>

  <script type="application/x-javascript"><![CDATA[
    var Clock = new function()
    {
      window.addEventListener("load", function(e) {init(); }, false);

      function init()
      {
      	// If script running, make the hour hand smaller so it is easier to distinguish
      	var node = document.getElementById("hours");
      	node.setAttribute("y",10);
        node.setAttribute("height",25);
      	setClock();
      }
      function setClock()
      {
        var dt;
        var sec;
        var min;
        var hr;
        var deg;
        var node;
        
        dt = new Date();
        min = dt.getMinutes();
        sec = dt.getSeconds();
        
        deg = (360/3600)*(60*min+sec);
        node = document.getElementById("minutes");
        node.setAttribute("transform","rotate("+deg+",3,32)");
        
        hr = dt.getHours();
        deg = 30*hr + 30/60*min;
        var node = document.getElementById("hours");
        node.setAttribute("transform","rotate("+deg+",3,32)");
        
        setTimeout(setClock,(10-dt.getSeconds()%10)*1000);
      }
    }();
    ]]>
  </script>

  <g transform="translate(1,1)">
    <path d="m6.755 25.72c7.382-9.081 18.004-15.425 30.093-17.245l-5.514-6.871c-2.868-2.967-9.069-1.697-16.868 2.807-7.799 4.503-11.998 9.237-10.864 13.204l3.153 8.105z" />
    <path style="display:none" d="m44.03 23.948c-1.658 0-3.002 1.344-3.002 3.002v26.018h-26.018c-1.658 0-3.002 1.344-3.002 3.002s1.344 3.002 3.002 3.002h29.02c1.658 0 3.002-1.344 3.002-3.002v-29.02c0-1.658-1.344-3.002-3.002-3.002z" />
    <path d="m81.306 25.72c-7.382-9.081-18.004-15.425-30.093-17.245l5.514-6.871c2.868-2.967 9.069-1.697 16.868 2.807 7.799 4.503 11.998 9.237 10.864 13.204l-3.153 8.105z" />
    <path d="m44.03 11.939c-24.278 0-44.03 19.752-44.03 44.03 0 24.28 19.752 44.031 44.03 44.031s44.03-19.752 44.03-44.031c0.001-24.278-19.751-44.03-44.03-44.03zm0 82.057c-20.968 0-38.026-17.059-38.026-38.026s17.058-38.027 38.026-38.027 38.026 17.059 38.026 38.026-17.058 38.027-38.026 38.027z" />

    <g transform="translate(41.03,23.95)">
      <rect id="hours" y="0" width="6" height="35" rx="3" />
      <rect id="minutes" width="6" height="35" rx="3" transform="rotate(-90,3,32)" />
    </g>
  </g>
</svg>
