<svg id="Layer_1" data-name="Layer 1" xmlns="http://www.w3.org/2000/svg" viewBox="0 0 512 512"><defs><style>.cls-1{fill:#6d4135;}</style></defs><title>stopwatch-outline</title><path class="cls-1" d="M391.6,134.1l28.07-38.42a21.33,21.33,0,1,0-34.45-25.17l-29.1,39.83A211.7,211.7,0,0,0,277.33,86.4V42.67H320A21.33,21.33,0,1,0,320,0H192a21.33,21.33,0,1,0,0,42.67h42.67V86.4C127,97.13,42.67,188.23,42.67,298.67,42.67,416.3,138.37,512,256,512s213.33-95.7,213.33-213.33A213,213,0,0,0,391.6,134.1ZM256,469.33c-94.1,0-170.67-76.56-170.67-170.67S161.9,128,256,128s170.67,76.56,170.67,170.67S350.1,469.33,256,469.33Z"/><path class="cls-1" d="M277.33,289.83v-76.5a21.33,21.33,0,1,0-42.67,0v85.33a21.34,21.34,0,0,0,6.25,15.08l64,64a21.33,21.33,0,1,0,30.17-30.17Z"/></svg>